<svg width="18" height="22" viewBox="0 0 18 22" fill="none" xmlns="http://www.w3.org/2000/svg">
<path d="M17 1.5H1V20.5L9 13.5909L17 20.5V1.5Z" fill="black"/>
<path d="M1 1.5V0.5C0.447715 0.5 0 0.947715 0 1.5L1 1.5ZM17 1.5H18C18 0.947715 17.5523 0.5 17 0.5V1.5ZM1 20.5H0C0 20.8912 0.22812 21.2465 0.583839 21.4093C0.939558 21.5721 1.35755 21.5125 1.65362 21.2568L1 20.5ZM9 13.5909L9.65362 12.8341C9.27819 12.5098 8.72181 12.5098 8.34638 12.8341L9 13.5909ZM17 20.5L16.3464 21.2568C16.6425 21.5125 17.0604 21.5721 17.4162 21.4093C17.7719 21.2465 18 20.8912 18 20.5H17ZM1 2.5H17V0.5H1V2.5ZM0 1.5V20.5H2V1.5H0ZM1.65362 21.2568L9.65362 14.3477L8.34638 12.8341L0.34638 19.7432L1.65362 21.2568ZM8.34638 14.3477L16.3464 21.2568L17.6536 19.7432L9.65362 12.8341L8.34638 14.3477ZM18 20.5V1.5H16V20.5H18Z" fill="black"/>
</svg>
