<svg width="18" height="21" viewBox="0 0 18 21" fill="none" xmlns="http://www.w3.org/2000/svg">
<path d="M1 1V0C0.447715 0 0 0.447715 0 1L1 1ZM17 1H18C18 0.447715 17.5523 0 17 0V1ZM1 20H0C0 20.3912 0.22812 20.7465 0.583839 20.9093C0.939558 21.0721 1.35755 21.0125 1.65362 20.7568L1 20ZM9 13.0909L9.65362 12.3341C9.27819 12.0099 8.72181 12.0099 8.34638 12.3341L9 13.0909ZM17 20L16.3464 20.7568C16.6425 21.0125 17.0604 21.0721 17.4162 20.9093C17.7719 20.7465 18 20.3912 18 20H17ZM1 2H17V0H1V2ZM0 1V20H2V1H0ZM1.65362 20.7568L9.65362 13.8477L8.34638 12.3341L0.34638 19.2432L1.65362 20.7568ZM8.34638 13.8477L16.3464 20.7568L17.6536 19.2432L9.65362 12.3341L8.34638 13.8477ZM18 20V1H16V20H18Z" fill="black"/>
</svg>
