<svg width="24" height="21" viewBox="0 0 24 21" fill="none" xmlns="http://www.w3.org/2000/svg">
<path d="M6.34674 10.1419C6.22728 11.1138 5.70735 12.1281 4.79549 13.1614C4.7156 13.252 4.62996 13.3299 4.54042 13.3967L5.11622 13.6268L14.0346 8.24128C13.3934 8.01055 12.7278 7.89762 12.0608 7.88519M6.34674 10.1419C6.5591 9.95414 6.78055 9.77586 7.00898 9.60828C7.2931 9.39985 7.59245 9.20468 7.90411 9.02602M6.34674 10.1419C6.34958 10.1188 6.35219 10.0957 6.35458 10.0727C6.42409 9.40133 6.29608 8.79582 6.0287 8.28043M6.34674 10.1419C5.49431 10.8956 4.78834 11.802 4.36532 12.7818C4.29297 12.9494 4.22889 13.1191 4.17378 13.2906C4.12573 13.4125 4.08141 13.5334 4.04074 13.6534L6.0287 8.28043M7.90411 9.02602C9.34418 9.31037 10.9263 9.02858 12.0608 7.88519M7.90411 9.02602C7.22717 8.89236 6.58162 8.6336 6.0287 8.28043M7.90411 9.02602C9.04051 8.37462 10.3406 7.94292 11.6625 7.88957C11.7952 7.88422 11.928 7.88271 12.0608 7.88519M12.0608 7.88519C12.2572 7.68731 12.4401 7.46363 12.6066 7.21261L6.0287 8.28043M6.0287 8.28043C5.88805 8.0093 5.70883 7.76312 5.4995 7.54541C5.22813 7.26317 4.91268 7.03444 4.57415 6.85696C4.93992 7.41591 5.42281 7.88028 5.96156 8.23678C5.98378 8.25148 6.00617 8.26603 6.0287 8.28043ZM20.1364 13.8391C20.1158 13.8248 20.0947 13.8113 20.0731 13.7986C19.7844 13.6291 19.4666 13.2671 19.2504 12.766C19.0367 12.2707 18.9681 11.7444 19.0557 11.3131C19.137 10.9131 19.3514 10.5755 19.7883 10.3464C20.2589 10.0997 21.0857 9.93057 22.4552 10.1361C22.6313 10.1626 22.7194 10.2254 22.7775 10.2896C22.8463 10.3659 22.9231 10.5036 22.9667 10.7353C23.0572 11.2166 22.965 11.9121 22.6662 12.5929C22.3666 13.2756 21.9307 13.7822 21.5003 14.0088C21.1461 14.1952 20.719 14.2429 20.1364 13.8391ZM6.04481 13.9979C6.05428 13.9742 6.06284 13.9502 6.07046 13.9259C6.36101 12.9987 7.1222 12.0057 8.19199 11.2209C9.25521 10.4409 10.5289 9.93695 11.7431 9.88795C12.9285 9.84011 14.0677 10.2203 14.9915 11.2416C15.9386 12.2887 16.742 14.1031 17.0055 17.0705C17.0578 17.66 16.9165 18.1114 16.6611 18.4745C16.3952 18.8527 15.9649 19.1906 15.3654 19.4554C14.1515 19.9916 12.4223 20.1455 10.7072 19.8564C8.98774 19.5667 7.45943 18.8626 6.56198 17.8738C5.7277 16.9546 5.35904 15.7139 6.04481 13.9979ZM18.3364 1.40485C19.4791 1.98061 20.2482 3.51411 20.0103 4.75919C19.9017 5.32763 19.5814 5.85266 18.9222 6.22879C18.2361 6.62022 17.1106 6.88821 15.3582 6.73475C15.3581 6.73474 15.358 6.73473 15.3579 6.73472L15.3551 6.73356C15.3533 6.73271 15.3504 6.7312 15.3462 6.72867C15.3296 6.71846 15.2915 6.69015 15.2397 6.62385C15.1302 6.48387 15.0067 6.235 14.9128 5.86417C14.7254 5.12437 14.7133 4.12665 14.9295 3.20312C15.1497 2.26194 15.562 1.57557 16.0572 1.24734C16.4759 0.969739 17.1615 0.812893 18.3364 1.40485ZM10.9399 6.10719C10.1502 7.29783 8.40583 7.45597 7.06524 6.56888C6.43712 6.15324 6.0125 5.56137 5.90047 4.87476C5.7901 4.19832 5.95733 3.26757 6.82965 2.12073C7.44438 1.31254 8.05726 1.0913 8.55931 1.09726C9.10287 1.10371 9.71165 1.38013 10.2526 1.92003C11.3752 3.04029 11.7921 4.82228 10.9399 6.10719ZM1.82847 8.55361C2.13561 8.39954 2.55742 8.33996 2.99884 8.41413C3.43988 8.48823 3.81769 8.68187 4.05781 8.9316C4.2782 9.16082 4.40761 9.45726 4.36522 9.86669C4.32109 10.2928 4.07919 10.9254 3.37193 11.7507C3.29137 11.746 3.15362 11.7204 2.96131 11.6443C2.51226 11.4665 1.98018 11.0985 1.57355 10.6397C1.15285 10.165 0.990582 9.73855 1.00044 9.45503C1.00684 9.2708 1.09034 8.92385 1.82847 8.55361L1.38011 7.65975L1.82847 8.55361Z" stroke="black" stroke-width="2" stroke-linecap="round" stroke-linejoin="round"/>
</svg>
