<svg width="24" height="21" viewBox="0 0 24 21" fill="none" xmlns="http://www.w3.org/2000/svg">
<path d="M18.7863 0.511805C21.8508 2.05584 22.7768 8.38822 15.271 7.73094C12.6948 7.50534 13.1682 -2.31894 18.7863 0.511805Z" fill="black"/>
<path d="M11.7732 6.6599C9.38448 10.2616 2.04893 6.75416 6.03373 1.51533C9.12644 -2.55067 14.162 3.05816 11.7732 6.6599Z" fill="black"/>
<path d="M19.5666 14.6609C17.5029 13.4488 16.6425 8.25236 22.6036 9.14723C25.7468 9.61907 23.0815 17.0976 19.5666 14.6609Z" fill="black"/>
<path d="M5.11622 13.6268C6.59877 8.89573 16.9028 4.60465 18.0015 16.9821C18.5809 23.5085 1.8225 21.8686 5.11622 13.6268Z" fill="black"/>
<path d="M1.38011 7.65975C3.48952 6.60167 7.44495 8.64785 4.04571 12.4997C2.879 13.8218 -2.48715 9.59958 1.38011 7.65975Z" fill="black"/>
</svg>
