<svg width="44" height="44" viewBox="0 0 44 44" fill="none" xmlns="http://www.w3.org/2000/svg">
<path d="M0 22C0 9.84974 9.84974 0 22 0C34.1503 0 44 9.84974 44 22C44 34.1503 34.1503 44 22 44C9.84974 44 0 34.1503 0 22Z" fill="#00B67A"/>
<path d="M22.3313 32.801C28.2235 32.801 33 27.9206 33 21.9005C33 15.8803 28.2235 11 22.3313 11C16.4391 11 11.6626 15.8803 11.6626 21.9005C11.6626 24.3454 12.4505 26.6024 13.7809 28.4208C12.9046 29.975 12.2656 31.146 9.84211 32.4129C12.9984 33.411 15.3282 33.1039 17.7326 31.7391C19.1251 32.4198 20.6846 32.801 22.3313 32.801Z" fill="white"/>
</svg>
