<svg width="44" height="44" viewBox="0 0 44 44" fill="none" xmlns="http://www.w3.org/2000/svg">
<path d="M0 22C0 9.84974 9.84974 0 22 0C34.1503 0 44 9.84974 44 22C44 34.1503 34.1503 44 22 44C9.84974 44 0 34.1503 0 22Z" fill="#51149F"/>
<path fill-rule="evenodd" clip-rule="evenodd" d="M19.1479 32.9812C19.1479 34.5874 20.4277 35.8947 22 35.8947C23.5727 35.8947 24.8521 34.5874 24.8521 32.9812C24.8521 31.3747 23.5727 30.0677 22 30.0677C20.4277 30.0677 19.1479 31.3747 19.1479 32.9812ZM32.0609 28.2165C32.2599 28.2165 32.4211 28.0515 32.4211 27.8482V26.855C32.4211 26.7261 32.3551 26.6064 32.247 26.54C30.3021 25.3395 29.1412 23.2397 29.1412 20.9211V16.5586C29.1412 15.6261 28.9706 14.7174 28.6355 13.858C28.1125 12.5177 27.2196 11.374 26.0531 10.5516C24.8586 9.70891 23.4568 9.26315 22 9.26315C20.5432 9.26315 19.1414 9.70891 17.9474 10.5516C16.7809 11.374 15.8879 12.5177 15.3645 13.858C15.0294 14.7174 14.8592 15.6261 14.8592 16.5586V20.9211C14.8592 23.2397 13.6979 25.3395 11.753 26.54C11.6449 26.6068 11.5789 26.7261 11.5789 26.855V27.8482C11.5789 28.0515 11.7405 28.2165 11.9395 28.2165H32.0609Z" fill="white"/>
</svg>
