<svg width="44" height="44" viewBox="0 0 44 44" fill="none" xmlns="http://www.w3.org/2000/svg">
<path d="M0 22C0 9.84974 9.84974 0 22 0C34.1503 0 44 9.84974 44 22C44 34.1503 34.1503 44 22 44C9.84974 44 0 34.1503 0 22Z" fill="#FFD43D"/>
<path d="M21.072 9.31085C21.4079 8.47438 22.5921 8.47438 22.928 9.31085L25.6454 16.0779C25.7885 16.4341 26.1228 16.677 26.5058 16.703L33.7813 17.1963C34.6807 17.2573 35.0466 18.3834 34.3549 18.9614L28.7588 23.637C28.4642 23.8831 28.3365 24.2761 28.4301 24.6484L30.2092 31.7203C30.4292 32.5944 29.4712 33.2905 28.7078 32.8112L22.5317 28.9338C22.2066 28.7297 21.7934 28.7297 21.4683 28.9338L15.2923 32.8112C14.5288 33.2905 13.5708 32.5944 13.7908 31.7203L15.5699 24.6484C15.6635 24.2761 15.5358 23.8831 15.2412 23.637L9.64514 18.9614C8.95341 18.3834 9.31933 17.2573 10.2187 17.1963L17.4942 16.703C17.8772 16.677 18.2115 16.4341 18.3546 16.0779L21.072 9.31085Z" fill="white"/>
</svg>
