<svg width="44" height="44" viewBox="0 0 44 44" fill="none" xmlns="http://www.w3.org/2000/svg">
<path d="M0 22C0 9.84974 9.84974 0 22 0C34.1503 0 44 9.84974 44 22C44 34.1503 34.1503 44 22 44C9.84974 44 0 34.1503 0 22Z" fill="#FFD43D"/>
<path fill-rule="evenodd" clip-rule="evenodd" d="M29.2687 10.9087C32.7822 12.7065 33.844 20.0795 25.2382 19.3142C22.2844 19.0515 22.8272 7.61282 29.2687 10.9087ZM21.2279 18.0671C18.489 22.2607 10.0784 18.1769 14.6472 12.0772C18.1931 7.34301 23.9667 13.8735 21.2279 18.0671ZM30.1634 27.3829C27.7971 25.9717 26.8107 19.9213 33.6454 20.9632C37.2493 21.5126 34.1934 30.22 30.1634 27.3829ZM13.5952 26.1789C15.295 20.6704 27.1091 15.6742 28.3689 30.0856C29.0332 37.6845 9.81881 35.7751 13.5952 26.1789ZM9.31159 19.2313C11.7301 17.9993 16.2652 20.3818 12.3678 24.8666C11.0301 26.406 4.87758 21.4899 9.31159 19.2313Z" fill="white"/>
</svg>
