<svg width="4" height="16" viewBox="0 0 4 16" fill="none" xmlns="http://www.w3.org/2000/svg">
<path d="M0.5 1.99766C0.5 1.58321 0.646789 1.22528 0.940367 0.923866C1.23394 0.641289 1.59174 0.5 2.01376 0.5C2.43578 0.5 2.7844 0.641289 3.05963 0.923866C3.35321 1.22528 3.5 1.58321 3.5 1.99766C3.5 2.41211 3.35321 2.77004 3.05963 3.07145C2.7844 3.37287 2.43578 3.52358 2.01376 3.52358C1.59174 3.52358 1.23394 3.37287 0.940367 3.07145C0.646789 2.77004 0.5 2.41211 0.5 1.99766Z" fill="black"/>
<path d="M0.5 7.98587C0.5 7.57142 0.646789 7.21349 0.940367 6.91208C1.23394 6.6295 1.59174 6.48821 2.01376 6.48821C2.43578 6.48821 2.7844 6.6295 3.05963 6.91208C3.35321 7.21349 3.5 7.57142 3.5 7.98587C3.5 8.40032 3.35321 8.75825 3.05963 9.05966C2.7844 9.36108 2.43578 9.51179 2.01376 9.51179C1.59174 9.51179 1.23394 9.36108 0.940367 9.05966C0.646789 8.75825 0.5 8.40032 0.5 7.98587Z" fill="black"/>
<path d="M0.499999 13.9741C0.499999 13.5596 0.646789 13.2017 0.940366 12.9003C1.23394 12.6177 1.59174 12.4764 2.01376 12.4764C2.43578 12.4764 2.7844 12.6177 3.05963 12.9003C3.35321 13.2017 3.5 13.5596 3.5 13.9741C3.5 14.3885 3.35321 14.7465 3.05963 15.0479C2.7844 15.3493 2.43578 15.5 2.01376 15.5C1.59174 15.5 1.23394 15.3493 0.940366 15.0479C0.646788 14.7465 0.499999 14.3885 0.499999 13.9741Z" fill="black"/>
</svg>
