<svg width="32" height="32" viewBox="0 0 32 32" fill="none" xmlns="http://www.w3.org/2000/svg">
<path d="M9.83095 25.5109C9.83095 26.0179 10.0632 27.5347 10.5505 28.148C11.2277 29.0003 12.0592 29.2096 12.8589 28.7905L12.8623 28.787C13.1914 28.4434 13.3412 27.9486 13.2348 27.476C13.124 26.983 12.7113 26.769 12.6696 25.8999C12.6345 25.1615 13.1407 24.5394 13.6898 24.0604L11.4204 21.2175C10.4374 22.357 9.83095 23.8563 9.83095 25.5109ZM18.31 24.0598C18.8591 24.5389 19.3659 25.1615 19.3309 25.8999C19.2896 26.769 18.8764 26.983 18.7656 27.476C18.6598 27.9486 18.809 28.444 19.1382 28.787L19.1415 28.7905C19.9412 29.2102 20.7727 29.0009 21.4499 28.148C21.9372 27.5347 22.1695 26.0185 22.1695 25.5109C22.1695 23.8563 21.563 22.357 20.5795 21.2169L18.31 24.0598ZM23.598 16.6775C22.2669 15.238 20.5616 14.1863 18.6503 13.6677C20.0665 12.7433 21.0122 11.105 21.0122 9.23239C21.0122 6.34236 18.7684 4 15.9999 4C13.2315 4 10.9877 6.34236 10.9877 9.23239C10.9877 11.105 11.9333 12.7433 13.3496 13.6677C11.4382 14.1863 9.73293 15.2374 8.40189 16.6775C7.86447 17.2589 7.86447 18.1809 8.41136 18.7524C8.97329 19.339 9.87828 19.3134 10.4307 18.717C10.8234 18.2937 11.6292 17.6984 12.1015 17.3722C12.0375 17.6664 11.9378 18.3803 11.8537 19.1164H20.1456C20.0615 18.3803 19.9618 17.6664 19.8978 17.3722C20.3701 17.6984 21.1759 18.2937 21.5686 18.717C22.1216 19.3134 23.026 19.339 23.5879 18.7524C24.136 18.1803 24.1354 17.2583 23.598 16.6775Z" fill="black"/>
</svg>
