<svg width="32" height="34" viewBox="0 0 32 34" fill="none" xmlns="http://www.w3.org/2000/svg">
<g filter="url(#filter0_d)">
<path d="M25.8395 12.2685L25.3107 11.5944C25.0639 11.3105 24.7113 11.2041 24.3588 11.3105L20.516 6.34304C20.234 5.95274 19.6699 5.88177 19.2821 6.20111C18.8943 6.48496 18.8238 7.05267 19.1411 7.44297L22.9486 12.2685L21.6089 13.3684L17.8366 8.47195C17.5193 8.08165 16.9905 8.01068 16.6027 8.33002C16.2149 8.61388 16.1444 9.18159 16.4617 9.57189L20.234 14.5039L18.9295 15.5328L15.122 10.6009C14.84 10.2106 14.2759 10.1396 13.8881 10.4589C13.5003 10.7428 13.4298 11.3105 13.7471 11.7008L17.5194 16.5973L16.2149 17.6263L12.4074 12.6943C12.0901 12.304 11.5613 12.233 11.1735 12.5524C10.7857 12.8362 10.7152 13.4039 11.0325 13.7942L14.7342 18.6552L13.5003 19.7552L9.69278 14.8232C9.41074 14.4329 8.84666 14.3619 8.45886 14.6813C8.07105 14.9651 8.00054 15.5328 8.31784 15.9231L12.0901 20.8196L10.7857 21.8486L7.04866 16.9166C6.76662 16.5263 6.20255 16.4554 5.81474 16.7747C5.42694 17.0586 5.35643 17.6263 5.63847 18.0166L9.44599 23.0195C9.37548 23.126 9.34023 23.2324 9.30497 23.3743C9.26972 23.6227 9.34023 23.8356 9.48125 24.013L10.0101 24.6872C10.5741 25.3968 11.3498 25.8581 12.2664 25.9645C12.4074 26 12.5484 26 12.6894 26C13.4298 26 14.1701 25.7516 14.7342 25.2904L25.2402 17.0586C26.6856 15.8877 26.9676 13.7587 25.8395 12.2685Z" fill="black"/>
</g>
<defs>
<filter id="filter0_d" x="-4" y="0" width="40" height="40" filterUnits="userSpaceOnUse" color-interpolation-filters="sRGB">
<feFlood flood-opacity="0" result="BackgroundImageFix"/>
<feColorMatrix in="SourceAlpha" type="matrix" values="0 0 0 0 0 0 0 0 0 0 0 0 0 0 0 0 0 0 127 0"/>
<feOffset dy="4"/>
<feGaussianBlur stdDeviation="2"/>
<feColorMatrix type="matrix" values="0 0 0 0 0 0 0 0 0 0 0 0 0 0 0 0 0 0 0.25 0"/>
<feBlend mode="normal" in2="BackgroundImageFix" result="effect1_dropShadow"/>
<feBlend mode="normal" in="SourceGraphic" in2="effect1_dropShadow" result="shape"/>
</filter>
</defs>
</svg>
