<svg width="32" height="32" viewBox="0 0 32 32" fill="none" xmlns="http://www.w3.org/2000/svg">
<path d="M24.2921 12.8167H19.183V7.70769C19.183 7.31664 18.8663 7 18.4757 7H13.524C13.133 7 12.8164 7.31664 12.8164 7.70769V12.8167H7.70768C7.31663 12.8167 7 13.1331 7 13.5241V18.4761C7 18.8672 7.31663 19.1836 7.70768 19.1836H12.8164V24.2925C12.8164 24.6836 13.133 25 13.524 25H18.476C18.8666 25 19.1832 24.6836 19.1832 24.2925V19.1836H24.2923C24.6834 19.1836 25 18.8672 25 18.4761V13.5241C24.9998 13.1333 24.6831 12.8167 24.2921 12.8167Z" fill="black"/>
</svg>
