<svg width="32" height="32" viewBox="0 0 32 32" fill="none" xmlns="http://www.w3.org/2000/svg">
<path d="M5.75465 7.81479C5.57621 7.34808 5.78439 6.78803 6.23048 6.60135C6.34944 6.53912 6.4684 6.53912 6.58736 6.53912C6.94424 6.53912 7.27138 6.75692 7.42007 7.09917L8.63941 9.88005L7.00372 10.5957L5.75465 7.81479ZM6.23048 12.6492C6.11152 12.9603 6.11152 13.3026 6.23048 13.6137L6.82528 15.1072C8.31227 14.516 10.1561 14.1115 12.1487 13.8937L11.1673 11.4357C11.0483 11.1246 10.8104 10.8757 10.513 10.7512C10.3643 10.689 10.2156 10.6579 10.0669 10.6579C9.91822 10.6579 9.73978 10.689 9.59108 10.7512L6.85502 11.9647C6.58736 12.0891 6.34944 12.338 6.23048 12.6492ZM16.0149 14.8894C9.9777 14.8894 5.96283 16.3828 4.95167 17.6896H27.0483C26.0669 16.3828 22.052 14.8894 16.0149 14.8894ZM4 18.9342L5.45725 24.5346H26.5428L28 18.9342H4Z" fill="black"/>
</svg>
