<svg width="22" height="22" viewBox="0 0 22 22" fill="none" xmlns="http://www.w3.org/2000/svg">
<path d="M11 12.5385C13.1242 12.5385 14.8462 10.8165 14.8462 8.69231C14.8462 6.56814 13.1242 4.84615 11 4.84615C8.87583 4.84615 7.15385 6.56814 7.15385 8.69231C7.15385 10.8165 8.87583 12.5385 11 12.5385ZM11 12.5385C8.02616 12.5385 5.61538 14.9492 5.61538 17.9231C5.61538 18.5024 5.70687 19.0604 5.87619 19.5833M11 12.5385C13.9738 12.5385 16.3846 14.9492 16.3846 17.9231C16.3846 18.5024 16.2931 19.0604 16.1238 19.5833M21 11C21 16.5228 16.5228 21 11 21C5.47715 21 1 16.5228 1 11C1 5.47715 5.47715 1 11 1C16.5228 1 21 5.47715 21 11Z" stroke="black" stroke-width="2" stroke-linecap="round" stroke-linejoin="round"/>
</svg>
