<svg width="22" height="23" viewBox="0 0 22 23" fill="none" xmlns="http://www.w3.org/2000/svg">
<path d="M14.8462 9.19231C14.8462 11.3165 13.1242 13.0385 11 13.0385C13.9738 13.0385 16.3846 15.4492 16.3846 18.4231C16.3846 19.0024 16.2869 19.5701 16.1176 20.0931C19.0416 18.3479 21 15.1527 21 11.5C21 5.97715 16.5228 1.5 11 1.5C5.47715 1.5 1 5.97715 1 11.5C1 15.1515 2.95708 18.3458 5.87952 20.0914C5.71021 19.5684 5.61538 19.0024 5.61538 18.4231C5.61538 15.4492 8.02616 13.0385 11 13.0385C8.87583 13.0385 7.15385 11.3165 7.15385 9.19231C7.15385 7.06814 8.87583 5.34615 11 5.34615C13.1242 5.34615 14.8462 7.06814 14.8462 9.19231Z" fill="black"/>
<path d="M11 13.0385C13.1242 13.0385 14.8462 11.3165 14.8462 9.19231C14.8462 7.06814 13.1242 5.34615 11 5.34615C8.87583 5.34615 7.15385 7.06814 7.15385 9.19231C7.15385 11.3165 8.87583 13.0385 11 13.0385ZM11 13.0385C8.02616 13.0385 5.61538 15.4492 5.61538 18.4231C5.61538 19.0024 5.71021 19.5684 5.87952 20.0914M11 13.0385C13.9738 13.0385 16.3846 15.4492 16.3846 18.4231C16.3846 19.0024 16.2869 19.5701 16.1176 20.0931C19.0416 18.3479 21 15.1527 21 11.5M5.87952 20.0914C7.37729 20.986 9.12861 21.5 11 21.5M5.87952 20.0914C2.95708 18.3458 1 15.1515 1 11.5M21 11.5C21 17.0228 16.5228 21.5 11 21.5M21 11.5C21 5.97715 16.5228 1.5 11 1.5C5.47715 1.5 1 5.97715 1 11.5M11 21.5C5.47715 21.5 1 17.0228 1 11.5" stroke="black" stroke-width="2" stroke-linecap="round" stroke-linejoin="round"/>
</svg>
