<svg width="14" height="14" viewBox="0 0 14 14" fill="none" xmlns="http://www.w3.org/2000/svg">
<path fill-rule="evenodd" clip-rule="evenodd" d="M7 0C10.866 0 14 3.13401 14 7C14 10.866 10.866 14 7 14C3.13401 14 0 10.866 0 7C0 3.13401 3.13401 0 7 0ZM7 1.75C4.1005 1.75 1.75 4.1005 1.75 7C1.75 9.8995 4.1005 12.25 7 12.25C9.8995 12.25 12.25 9.8995 12.25 7C12.25 4.1005 9.8995 1.75 7 1.75ZM9.11686 4.40922L5.85051 7.67557L4.55622 6.38127L4.47379 6.30848C4.13053 6.04159 3.63421 6.06585 3.31878 6.38127C2.97707 6.72298 2.97707 7.277 3.31878 7.61871L5.2318 9.53172L5.31423 9.60451C5.65748 9.87141 6.15381 9.84715 6.46923 9.53172L10.3543 5.64666L10.4271 5.56423C10.694 5.22097 10.6697 4.72464 10.3543 4.40922C10.0126 4.06751 9.45857 4.06751 9.11686 4.40922Z" fill="#C9C9C9"/>
</svg>
