<svg width="24" height="24" viewBox="0 0 24 24" fill="none" xmlns="http://www.w3.org/2000/svg">
<path fill-rule="evenodd" clip-rule="evenodd" d="M12 0C18.6274 0 24 5.37258 24 12C24 18.6274 18.6274 24 12 24C5.37258 24 0 18.6274 0 12C0 5.37258 5.37258 0 12 0ZM16.7116 15.72C15.5178 17.249 13.9757 17.9946 11.9998 17.9946C10.0239 17.9946 8.48183 17.249 7.28802 15.72C6.94813 15.2847 6.31972 15.2073 5.8844 15.5472C5.44909 15.8871 5.37173 16.5155 5.71161 16.9508C7.28608 18.9674 9.41067 19.9946 11.9998 19.9946C14.5889 19.9946 16.7135 18.9674 18.288 16.9508C18.6279 16.5155 18.5505 15.8871 18.1152 15.5472C17.6799 15.2073 17.0515 15.2847 16.7116 15.72ZM7.99995 8C7.17152 8 6.49994 8.89543 6.49994 10C6.49994 11.1046 7.17152 12 7.99995 12C8.82838 12 9.49995 11.1046 9.49995 10C9.49995 8.89543 8.82838 8 7.99995 8ZM15.9999 8C15.1715 8 14.4999 8.89543 14.4999 10C14.4999 11.1046 15.1715 12 15.9999 12C16.8283 12 17.4999 11.1046 17.4999 10C17.4999 8.89543 16.8283 8 15.9999 8Z" fill="#51149F"/>
</svg>
