<svg width="12" height="11" viewBox="0 0 12 11" fill="none" xmlns="http://www.w3.org/2000/svg">
<path d="M5.35042 0.617595C5.58555 0.0320667 6.41445 0.032066 6.64958 0.617594L7.64661 3.10041C7.74674 3.34976 7.98076 3.51978 8.24884 3.53796L10.9182 3.71896C11.5478 3.76164 11.8039 4.54997 11.3197 4.95453L9.2665 6.67C9.0603 6.84228 8.97092 7.11738 9.03647 7.37796L9.68922 9.97264C9.84316 10.5846 9.17257 11.0718 8.63818 10.7363L6.3722 9.31367C6.14463 9.1708 5.85537 9.1708 5.6278 9.31367L3.36182 10.7363C2.82743 11.0718 2.15684 10.5846 2.31078 9.97264L2.96353 7.37796C3.02908 7.11738 2.9397 6.84228 2.7335 6.67L0.680295 4.95453C0.196084 4.54997 0.452229 3.76164 1.08176 3.71896L3.75116 3.53796C4.01924 3.51978 4.25326 3.34976 4.35339 3.10041L5.35042 0.617595Z" fill="#FFD43D"/>
</svg>
