<svg width="18" height="17" viewBox="0 0 18 17" fill="none" xmlns="http://www.w3.org/2000/svg">
<path d="M7.62963 0.680677C7.99409 -0.226892 9.27888 -0.226893 9.64333 0.680676L11.1887 4.52905C11.3439 4.91553 11.7067 5.17906 12.1222 5.20724L16.2598 5.48779C17.2355 5.55395 17.6326 6.77586 16.882 7.40293L13.6996 10.0619C13.38 10.3289 13.2414 10.7553 13.343 11.1592L14.3548 15.181C14.5934 16.1295 13.554 16.8846 12.7257 16.3646L9.21339 14.1596C8.86066 13.9381 8.41231 13.9381 8.05958 14.1596L4.54731 16.3646C3.71901 16.8846 2.67959 16.1295 2.91819 15.181L3.92995 11.1592C4.03156 10.7553 3.89301 10.3289 3.57341 10.0619L0.390942 7.40293C-0.359585 6.77586 0.0374397 5.55395 1.01321 5.48779L5.15079 5.20724C5.56631 5.17906 5.92904 4.91553 6.08424 4.52905L7.62963 0.680677Z" fill="#51149F"/>
</svg>
